<svg width="100" height="100" viewBox="0 0 100 100" fill="none" xmlns="http://www.w3.org/2000/svg">
<rect width="100" height="100" rx="50" fill="#00B2E2"/>
<path d="M52.5049 30C53.0198 30 53.4158 30.42 53.4158 30.92V37.36C53.4158 41.02 56.4059 44.02 60.0297 44.04C61.5347 44.04 62.7228 44.06 63.6337 44.06L63.971 44.0585C64.5798 44.0539 65.3993 44.04 66.1089 44.04C66.604 44.04 67 44.44 67 44.94V61.02C67 65.98 63.0198 70 58.1089 70H42.3465C37.198 70 33 65.78 33 60.58V39.02C33 34.06 37 30 41.9307 30H52.5049ZM54.6238 55.8H43.8515C43.0396 55.8 42.3663 56.46 42.3663 57.28C42.3663 58.1 43.0396 58.78 43.8515 58.78H54.6238C55.4356 58.78 56.1089 58.1 56.1089 57.28C56.1089 56.46 55.4356 55.8 54.6238 55.8ZM50.5446 45.8H43.8515C43.0396 45.8 42.3663 46.48 42.3663 47.3C42.3663 48.12 43.0396 48.78 43.8515 48.78H50.5446C51.3564 48.78 52.0297 48.12 52.0297 47.3C52.0297 46.48 51.3564 45.8 50.5446 45.8ZM56.3014 31.812C56.3014 30.95 57.337 30.522 57.9291 31.144C60.0697 33.392 63.8103 37.322 65.9014 39.518C66.4796 40.124 66.0558 41.13 65.2222 41.132C63.5945 41.138 61.6756 41.132 60.2954 41.118C58.1053 41.118 56.3014 39.296 56.3014 37.084V31.812Z" fill="white"/>
</svg>
