<svg width="782" height="690" viewBox="0 0 782 690" fill="none" xmlns="http://www.w3.org/2000/svg">
<path opacity="0.1" d="M755.585 642.037C755.585 657.075 642.018 669.264 501.878 669.264C459.646 669.264 419.945 668.156 384.831 666.256C384.831 666.414 384.989 666.731 384.989 666.889C384.989 679.711 299.893 690 194.867 690C89.8414 690 4.74512 679.553 4.74512 666.731C4.74512 653.909 89.8414 643.62 194.867 643.62C213.848 643.62 232.038 643.937 249.278 644.57C248.487 643.778 248.013 642.829 248.013 641.879C248.013 626.841 361.58 614.652 501.72 614.652C641.86 614.652 755.585 626.999 755.585 642.037Z" fill="#100E3A"/>
<path d="M559.452 115.237C555.34 118.562 551.385 121.253 547.431 123.31C553.758 111.913 552.018 86.4281 551.227 90.0688C547.905 107.481 537.466 126.793 533.354 127.901C522.282 129.642 512.001 126.951 503.459 122.519C511.684 109.539 510.577 83.7371 510.102 85.32C504.25 102.416 491.596 112.546 489.224 112.705C480.683 104.948 475.937 97.0337 477.045 96.2422C485.586 90.0688 492.545 74.7144 498.714 58.4102C504.883 42.4226 510.261 25.4852 515.638 15.9876C515.797 15.671 515.955 15.5127 516.113 15.1961C527.501 -3.79904 544.109 -0.474887 554.549 4.74879C589.821 22.6359 564.83 110.805 559.452 115.237Z" fill="#100E3A"/>
<path d="M530.033 3.95732C523.073 5.85684 517.537 12.3469 514.057 18.362C509.47 26.435 506.465 35.2994 502.669 43.8472C495.235 60.468 485.744 75.9807 473.565 89.4357C473.249 89.7522 473.723 90.0688 474.04 89.9105C487.326 79.3049 496.184 64.4253 503.302 49.0709C506.939 41.3145 509.787 33.0833 513.266 25.1686C515.164 20.8947 517.379 16.6208 520.384 12.98C523.231 9.49758 526.711 7.28148 530.507 5.06537C531.14 4.74879 530.665 3.79903 530.033 3.95732Z" fill="#100E3A"/>
<path d="M560.558 63.0007C548.695 68.8576 540.471 126.635 533.669 129.8C522.123 135.182 493.81 129.959 483.845 131.225C477.676 132.017 461.701 153.861 465.339 158.135C468.977 162.567 535.725 170.64 552.175 163.359C561.507 159.243 569.89 119.195 571.156 101.624C572.579 84.0537 566.094 60.3097 560.558 63.0007Z" fill="#EB9481"/>
<path d="M558.186 163.833C557.711 164.467 557.079 165.1 556.604 165.575C545.69 175.705 477.518 173.014 474.197 170.007C470.717 166.999 472.773 162.409 472.773 162.409L490.014 132.65C490.014 132.65 492.387 128.059 498.239 128.376C504.091 128.692 528.133 131.7 533.511 129.009C538.889 126.318 544.741 79.1466 558.66 63.3173C560.558 61.1012 562.457 61.1012 564.196 62.3675C569.1 66.1666 572.738 81.9959 573.054 94.0262C573.528 109.381 568.151 151.17 558.186 163.833Z" fill="#67C6B4"/>
<path d="M493.652 129.009L474.039 166.208C474.039 166.208 464.549 160.193 464.549 160.034C464.549 159.876 480.999 128.692 481.79 128.376C482.58 128.059 493.652 129.009 493.652 129.009Z" fill="#67C6B4"/>
<path d="M474.672 165.416C477.835 159.876 491.438 136.449 493.652 129.8C493.811 129.642 493.336 129.326 493.178 129.642C489.54 135.182 476.886 158.768 474.039 165.258C474.039 165.733 474.355 165.891 474.672 165.416Z" fill="#100E3A"/>
<path d="M558.186 163.833L551.385 95.2925L564.038 62.3675C568.942 66.1666 572.58 81.9959 572.896 94.0262C573.529 109.381 568.151 151.17 558.186 163.833Z" fill="#100E3A"/>
<path d="M562.141 59.2016C558.345 67.2746 548.855 102.574 552.334 112.072C555.814 121.569 566.412 124.893 566.412 124.893C566.412 124.893 574.162 163.517 578.907 167.474C583.652 171.432 635.216 172.856 654.197 138.507C657.835 131.858 630.471 82.1542 610.383 65.5334C595.357 53.3448 571.315 39.8899 562.141 59.2016Z" fill="#67C6B4"/>
<path d="M600.26 110.647C596.78 113.971 593.775 117.454 589.03 118.878C584.285 120.461 579.065 120.303 574.162 120.936C574.003 120.936 574.003 121.094 574.162 121.094C579.856 121.094 585.708 121.886 591.086 119.828C595.357 118.245 598.204 114.921 600.734 111.122C601.209 110.647 600.576 110.33 600.26 110.647Z" fill="#100E3A"/>
<path d="M580.015 122.044C576.377 122.202 572.581 123.152 569.101 123.944C568.943 123.944 568.943 124.26 569.101 124.26C572.739 123.944 576.693 123.627 580.173 122.519C580.331 122.519 580.331 122.044 580.015 122.044Z" fill="#100E3A"/>
<path d="M566.886 124.577C566.886 124.577 566.886 124.418 566.886 124.577C566.886 124.26 566.728 124.102 566.57 124.102C558.503 121.094 552.335 114.763 552.018 105.74C551.702 96.5588 552.967 91.3351 555.34 82.629C555.34 82.4707 555.182 82.3124 555.023 82.629C550.911 92.6015 549.962 105.107 551.069 110.172C552.651 117.612 558.978 122.835 565.937 125.052C566.412 127.268 566.886 129.8 567.519 132.016C567.677 132.333 567.994 132.175 567.994 132.016C567.994 129.326 567.519 126.951 566.886 124.577Z" fill="#100E3A"/>
<path d="M596.465 84.212L632.528 137.873L643.758 110.489L596.465 84.212Z" fill="#100E3A"/>
<path d="M558.029 62.0509C558.029 62.0509 554.865 68.3826 554.549 69.9656C554.549 69.9656 558.661 77.2471 568.942 73.9229C579.224 70.5987 580.963 49.8623 580.963 49.8623C580.963 49.8623 573.529 48.2794 568.152 50.8121C562.932 53.1865 558.029 62.0509 558.029 62.0509Z" fill="#EB9481"/>
<path d="M566.728 71.3902C563.407 72.6566 559.453 64.9002 558.187 62.0509C557.871 61.4178 557.713 60.9429 557.713 60.9429L557.555 60.7846L556.764 60.1514L546.957 49.8624L555.656 32.4501L556.922 30.0757C556.922 30.0757 559.611 33.3999 562.932 37.3572C563.091 37.5155 563.249 37.8321 563.407 37.9904C563.881 38.6235 564.356 39.0984 564.83 39.7316C565.147 40.2065 565.463 40.5231 565.938 40.9979C566.254 41.4728 566.729 41.9477 567.045 42.4226C570.525 47.1714 573.846 52.2368 574.004 52.8699C574.637 54.4529 573.688 68.541 566.728 71.3902Z" fill="#EB9481"/>
<path d="M558.029 62.0509C557.713 61.4178 557.555 60.9429 557.555 60.9429L557.396 60.7846L556.764 60.1514L546.957 49.8624L555.656 32.4501L556.922 30.0757C556.922 30.0757 559.611 33.3999 562.932 37.3572C564.356 42.7392 566.57 55.8775 558.029 62.0509Z" fill="#100E3A"/>
<path d="M519.909 37.0406C526.078 61.4178 542.211 59.5182 546.482 59.2017C551.385 58.8851 567.361 53.3448 563.723 28.4928C560.243 3.64074 546.956 -1.26635 535.884 0.949758C524.971 3.00757 513.899 12.6635 519.909 37.0406Z" fill="#EB9481"/>
<path d="M523.548 32.1335C524.022 31.8169 524.497 31.5003 524.971 31.3421C525.604 31.0255 526.079 30.8672 526.395 30.234C526.553 29.9174 526.395 29.4425 526.079 29.1259C525.288 28.6511 524.497 28.9677 523.864 29.2842C523.073 29.7591 522.599 30.234 522.282 31.0255C521.808 31.8169 522.757 32.4501 523.548 32.1335Z" fill="#100E3A"/>
<path d="M540.156 27.2264C539.523 27.3847 539.049 27.3847 538.416 27.3847C537.783 27.3847 537.309 27.543 536.676 27.2264C536.36 27.0681 536.202 26.5932 536.36 26.1184C536.676 25.3269 537.467 25.0103 538.258 25.0103C539.049 24.852 539.84 25.0103 540.63 25.4852C541.263 25.9601 540.947 27.0681 540.156 27.2264Z" fill="#100E3A"/>
<path d="M538.891 34.3496C538.891 34.3496 539.049 34.3496 539.049 34.5079C539.523 36.0908 540.314 37.9904 541.896 38.1486V38.3069C540.156 38.4652 539.049 35.9325 538.891 34.3496Z" fill="#100E3A"/>
<path d="M539.839 32.1335C542.37 31.1837 544.268 36.4074 541.895 37.3572C539.523 38.1486 537.783 33.0833 539.839 32.1335Z" fill="#100E3A"/>
<path d="M540.947 32.1335C541.58 32.2918 542.054 32.6084 542.687 32.4501C543.32 32.2918 543.636 31.6586 543.794 30.8672H543.953C544.269 31.8169 544.269 33.0833 543.32 33.5581C542.371 34.033 541.422 33.3998 540.789 32.4501C540.789 32.4501 540.789 31.9752 540.947 32.1335Z" fill="#100E3A"/>
<path d="M528.609 37.0406C528.609 37.0406 528.451 37.1989 528.609 37.1989C529.242 38.7818 529.716 40.6813 528.451 41.7894V41.9477C530.033 40.9979 529.4 38.4652 528.609 37.0406Z" fill="#100E3A"/>
<path d="M526.552 35.9325C523.863 36.724 525.445 41.9477 527.976 41.3145C530.348 40.523 528.767 35.2994 526.552 35.9325Z" fill="#100E3A"/>
<path d="M525.604 36.5657C525.288 37.0406 524.971 37.6738 524.497 37.8321C523.864 37.9904 523.39 37.6738 522.757 37.1989C522.757 37.1989 522.599 37.1989 522.757 37.3572C523.073 38.3069 523.706 39.2567 524.655 39.2567C525.604 39.0984 525.92 38.1487 525.92 37.0406C525.92 36.724 525.604 36.4074 525.604 36.5657Z" fill="#100E3A"/>
<path d="M542.37 47.0131C542.212 47.4879 541.896 48.1211 541.421 48.4377C540.947 48.7543 540.156 48.7543 539.523 48.7543C539.523 48.7543 539.365 48.7543 539.523 48.9126C540.156 49.3875 541.263 49.3875 541.896 48.9126C542.529 48.4377 542.687 47.8045 542.529 47.0131C542.529 46.8548 542.37 46.8548 542.37 47.0131Z" fill="#100E3A"/>
<path d="M533.671 43.3723C533.671 43.3723 534.145 45.905 534.462 47.0131C534.462 47.1714 534.778 47.0131 535.252 47.0131C537.309 46.6965 539.207 45.2718 539.839 43.214C539.839 43.0557 539.681 43.0557 539.681 43.0557C538.574 44.6387 536.992 45.4301 535.252 46.0633C535.094 45.7467 534.62 41.6311 534.462 41.7894C533.829 41.9477 532.722 42.7392 532.089 43.214C530.982 37.9904 530.666 32.6084 529.558 27.3847C529.558 27.2264 529.242 27.2264 529.242 27.3847C529.084 33.0833 530.349 39.0984 531.298 44.6387C531.298 45.4301 533.354 43.6889 533.671 43.3723Z" fill="#100E3A"/>
<path d="M535.095 46.0633C535.095 46.0633 536.518 47.3296 538.258 47.6462C538.891 47.8045 539.524 47.6462 540.156 47.3296C541.422 46.6965 541.263 45.4301 540.789 44.4804C540.473 43.6889 539.84 43.0557 539.84 43.0557C539.84 43.0557 538.258 45.2718 535.095 46.0633Z" fill="#100E3A"/>
<path d="M538.258 47.6462C538.89 47.8045 539.523 47.6462 540.156 47.3296C541.421 46.6964 541.263 45.4301 540.788 44.4803C539.365 44.9552 538.099 46.2216 538.258 47.6462Z" fill="#FF9CBD"/>
<path d="M561.509 31.342C558.978 31.342 556.289 24.852 556.289 24.852C556.289 24.852 546.957 25.0103 538.574 19.6284C532.563 15.8293 530.032 11.5554 530.032 11.5554C528.609 25.9601 518.011 31.1838 518.011 31.1838C518.011 31.1838 514.215 20.5781 518.17 13.4549C521.966 6.33172 530.823 -2.69099 545.533 0.791462C545.533 0.791462 556.289 2.84927 560.401 10.6056C564.672 18.362 564.83 31.342 561.509 31.342Z" fill="#100E3A"/>
<path d="M529.399 9.97248C529.399 9.81419 529.558 9.81419 529.399 9.97248C531.139 16.4625 537.15 20.2615 543.16 22.4776C548.696 24.5355 553.916 24.6937 559.768 24.2189C559.926 24.2189 559.926 24.3772 559.768 24.5355C553.916 25.8018 547.115 24.6937 541.737 22.4776C536.201 20.1032 530.507 16.1459 529.399 9.97248Z" fill="#100E3A"/>
<path d="M560.56 32.2918C560.56 32.2918 563.249 23.1108 567.203 23.744C571.157 24.3772 570.999 36.5657 567.519 39.415C564.039 42.2643 561.35 39.0984 561.35 39.0984L560.56 32.2918Z" fill="#EB9481"/>
<path d="M567.045 27.2264C567.203 27.2264 567.203 27.2264 567.045 27.2264C564.672 29.4425 564.198 32.4501 564.04 35.4577C564.514 34.1913 565.463 33.2416 567.203 33.7165C567.361 33.7165 567.203 33.8748 567.203 33.8748C565.938 34.033 565.305 34.5079 564.831 35.616C564.514 36.4074 564.356 37.3572 564.356 38.307C564.356 38.6236 563.882 38.6236 563.882 38.307C562.3 34.6662 563.407 28.8094 567.045 27.2264Z" fill="#100E3A"/>
<path d="M565.621 38.1487C568.152 37.3572 569.417 41.1563 566.887 41.9477C564.514 42.8975 563.249 39.0984 565.621 38.1487Z" fill="#F3F8FE"/>
<path d="M471.509 106.531C492.474 106.531 509.47 93.9873 509.47 78.5134C509.47 63.0396 492.474 50.4955 471.509 50.4955C450.544 50.4955 433.548 63.0396 433.548 78.5134C433.548 93.9873 450.544 106.531 471.509 106.531Z" fill="#FFC727"/>
<path d="M492.229 59.5182L510.736 54.7694L503.934 70.1239L492.229 59.5182Z" fill="#FFC727"/>
<path d="M457.907 78.5134C457.907 76.2973 456.167 74.5561 453.952 74.5561C451.738 74.5561 449.998 76.2973 449.998 78.5134C449.998 80.7295 451.738 82.4707 453.952 82.4707C456.009 82.3125 457.907 80.5712 457.907 78.5134Z" fill="#100E3A"/>
<path d="M475.463 78.5134C475.463 76.2973 473.723 74.5561 471.509 74.5561C469.295 74.5561 467.555 76.2973 467.555 78.5134C467.555 80.7295 469.295 82.4707 471.509 82.4707C473.723 82.4707 475.463 80.5712 475.463 78.5134Z" fill="#100E3A"/>
<path d="M493.021 78.5134C493.021 76.2973 491.281 74.5561 489.067 74.5561C486.852 74.5561 485.112 76.2973 485.112 78.5134C485.112 80.7295 486.852 82.4707 489.067 82.4707C491.281 82.3125 493.021 80.5712 493.021 78.5134Z" fill="#100E3A"/>
<path d="M781.999 163.359V522.051C781.999 536.297 770.611 547.694 756.376 547.694H257.028C242.793 547.694 231.404 536.297 231.404 522.051V163.359C231.404 149.112 242.793 137.715 257.028 137.715H756.217C770.453 137.715 781.999 149.27 781.999 163.359Z" fill="#100E3A"/>
<path d="M754.161 164.467H259.242V458.892H754.161V164.467Z" fill="white"/>
<path d="M781.999 487.226V522.051C781.999 536.297 770.611 547.694 756.376 547.694H257.028C242.793 547.694 231.404 536.297 231.404 522.051V487.226H781.999Z" fill="#D9D9FC"/>
<path d="M624.145 641.246H389.26V637.288C389.26 628.582 396.377 621.617 404.919 621.617H608.327C617.027 621.617 623.986 628.741 623.986 637.288V641.246H624.145Z" fill="#A7A5D8"/>
<path d="M596.148 621.617H417.256L421.843 587.584L422.001 586.001L422.476 582.836L422.634 581.253L423.108 577.928V577.454L423.266 576.346L423.741 573.18L423.899 571.597L427.063 547.694H586.341L589.346 570.172V571.28L589.979 575.079V576.187L590.296 577.454L590.612 579.828L590.77 580.936L591.244 584.577L591.403 585.685L596.148 621.617Z" fill="#D9D9FC"/>
<path d="M754.161 164.467H259.242V180.454H754.161V164.467Z" fill="#474799"/>
<path d="M423.266 227.626H289.611V323.71H423.266V227.626Z" fill="#D9D9FC"/>
<path d="M411.878 277.805C411.878 292.842 399.699 305.031 384.672 305.031C375.815 305.031 367.906 300.757 362.845 294.109H374.708V274.797H357.625C359.049 261.184 370.595 250.578 384.672 250.578C399.699 250.578 411.878 262.767 411.878 277.805Z" fill="white"/>
<path d="M362.845 294.109H304.796V274.797H357.625C357.467 275.747 357.467 276.696 357.467 277.805C357.467 283.82 359.523 289.518 362.845 294.109Z" fill="white"/>
<path d="M722.052 340.014H441.14V431.507H722.052V340.014Z" stroke="#D9D9FC" stroke-miterlimit="10"/>
<path d="M441.14 340.014L721.894 431.666" stroke="#D9D9FC" stroke-miterlimit="10"/>
<path d="M721.894 340.014L441.14 431.666" stroke="#D9D9FC" stroke-miterlimit="10"/>
<path d="M570.524 227.626H441.14V232.374H570.524V227.626Z" fill="#A7A5D8"/>
<path d="M570.524 238.706H441.14V243.455H570.524V238.706Z" fill="#A7A5D8"/>
<path d="M570.524 249.787H441.14V254.535H570.524V249.787Z" fill="#A7A5D8"/>
<path d="M570.524 261.025H441.14V265.774H570.524V261.025Z" fill="#A7A5D8"/>
<path d="M516.271 272.106H441.14V276.855H516.271V272.106Z" fill="#A7A5D8"/>
<path d="M570.524 283.186H441.14V287.935H570.524V283.186Z" fill="#A7A5D8"/>
<path d="M570.524 294.425H441.14V299.174H570.524V294.425Z" fill="#A7A5D8"/>
<path d="M570.524 305.506H441.14V310.255H570.524V305.506Z" fill="#A7A5D8"/>
<path d="M538.89 316.586H441.14V321.335H538.89V316.586Z" fill="#A7A5D8"/>
<path d="M423.266 340.014H289.77V431.507H423.266V340.014Z" fill="#67C6B4"/>
<path d="M309.225 423.593H301.158V431.665H309.225V423.593Z" fill="white"/>
<path d="M326.307 400.323H318.24V431.507H326.307V400.323Z" fill="#FF9CBD"/>
<path d="M343.548 385.919H335.481V431.666H343.548V385.919Z" fill="#474799"/>
<path d="M360.63 364.866H352.563V431.666H360.63V364.866Z" fill="#FFC727"/>
<path d="M377.713 348.403H369.646V431.666H377.713V348.403Z" fill="#DD6A57"/>
<path d="M394.795 410.454H386.729V431.666H394.795V410.454Z" fill="white"/>
<path d="M411.878 383.386H403.812V431.666H411.878V383.386Z" fill="#FF9CBD"/>
<path d="M720.312 330.991L588.239 313.104L603.582 217.97L735.655 235.857L720.312 330.991Z" fill="#FFC727"/>
<path d="M709.874 318.486L663.371 312.154L696.429 248.045L709.874 318.486Z" fill="#FF9CBD"/>
<path d="M656.252 297.591L609.75 291.259L638.854 255.96L656.252 297.591Z" fill="#FF9CBD"/>
<path d="M271.896 172.381C271.896 174.597 270.156 176.339 267.942 176.339C265.727 176.339 263.987 174.597 263.987 172.381C263.987 170.165 265.727 168.424 267.942 168.424C270.156 168.424 271.896 170.165 271.896 172.381Z" fill="#FF9CBD"/>
<path d="M288.03 172.381C288.03 174.597 286.29 176.339 284.075 176.339C281.861 176.339 280.121 174.597 280.121 172.381C280.121 170.165 281.861 168.424 284.075 168.424C286.29 168.424 288.03 170.165 288.03 172.381Z" fill="white"/>
<path d="M304.163 172.381C304.163 174.597 302.424 176.339 300.209 176.339C297.995 176.339 296.255 174.597 296.255 172.381C296.255 170.165 297.995 168.424 300.209 168.424C302.265 168.424 304.163 170.165 304.163 172.381Z" fill="#FFC727"/>
<path d="M722.052 196.442H544.109V212.271H722.052V196.442Z" fill="#D9D9FC"/>
<path d="M305.428 196.442H289.611V212.271H305.428V196.442Z" fill="#67C6B4"/>
<path d="M327.256 196.442H311.438V212.271H327.256V196.442Z" fill="#FFC727"/>
<path d="M348.926 196.442H333.108V212.271H348.926V196.442Z" fill="#FF9CBD"/>
<path d="M454.901 196.442H377.238V212.271H454.901V196.442Z" fill="#D9D9FC"/>
<path d="M516.43 513.503C516.43 519.043 512.001 523.476 506.465 523.476C500.929 523.476 496.5 519.043 496.5 513.503C496.5 507.963 500.929 503.531 506.465 503.531C512.001 503.531 516.43 507.963 516.43 513.503Z" fill="#A7A5D8"/>
<path d="M590.296 577.454H423.108L423.267 576.346L423.741 573.18L423.899 571.597L427.063 547.694H586.341L589.347 570.172V571.28L589.979 575.079V576.187L590.296 577.454Z" fill="#100E3A"/>
<path d="M490.964 133.916C485.428 132.491 477.836 127.584 473.565 127.901C469.769 128.217 468.978 131.542 468.978 131.542C468.978 131.542 466.131 127.743 462.335 128.692C460.437 129.167 459.33 132.65 459.33 132.65C459.33 132.65 456.957 129.8 453.477 130.75C450.788 131.542 450.156 135.024 450.156 135.024C450.156 135.024 446.518 133.283 443.987 135.024C439.084 138.507 443.512 162.092 452.845 163.992C457.273 164.941 455.85 159.243 455.85 159.243C455.85 159.243 459.804 166.999 464.707 166.05C469.611 165.258 467.238 157.977 467.238 157.977C467.238 157.977 471.192 165.416 476.096 163.992C481.315 162.567 477.678 155.76 477.678 155.76C477.678 155.76 482.265 160.351 485.744 158.451C491.597 155.286 480.841 143.889 480.999 138.507H490.489L490.964 133.916Z" fill="#EB9481"/>
<path d="M482.581 130.592C487.959 131.542 493.02 124.102 498.24 124.102C505.358 124.26 499.98 136.29 490.173 138.507H482.581V130.592Z" fill="#EB9481"/>
<path d="M450.156 135.657C450.156 135.499 449.998 135.499 450.156 135.657C449.682 143.73 451.738 152.753 456.167 159.56C456.325 159.718 456.799 159.718 456.641 159.401C453.32 151.487 451.105 144.205 450.156 135.657Z" fill="#100E3A"/>
<path d="M459.33 132.65C459.33 132.491 459.172 132.65 459.172 132.65C458.855 141.039 461.386 151.17 467.555 158.452C467.713 158.768 468.188 158.768 468.029 158.452C464.233 153.228 460.121 140.248 459.33 132.65Z" fill="#100E3A"/>
<path d="M478.785 156.235C473.249 149.112 470.56 140.723 468.978 131.858C468.978 131.7 468.82 131.858 468.82 131.858C468.345 136.449 469.927 141.989 471.509 146.105C473.091 150.22 475.147 153.544 478.468 156.235C478.627 156.552 478.785 156.394 478.785 156.235Z" fill="#100E3A"/>
<path d="M586.34 53.1865C599.152 52.5534 645.338 75.1893 668.431 101.466C684.723 119.828 659.89 201.032 654.512 202.457C649.135 203.882 624.143 198.183 620.189 193.909C616.235 189.477 640.119 122.677 638.221 118.562C636.323 114.604 610.383 96.7172 594.249 79.4632C585.075 69.4907 577.167 53.6614 586.34 53.1865Z" fill="#EB9481"/>
<path d="M622.562 176.972C621.613 180.613 613.704 205.306 613.546 211.796C613.388 218.445 616.393 236.332 621.455 236.965C626.516 237.598 626.674 232.058 626.674 232.058C626.674 232.058 628.256 239.972 633.476 240.131C638.537 240.289 638.537 231.583 638.537 231.583C638.537 231.583 640.751 239.656 645.971 239.498C651.033 239.339 649.609 230.633 649.609 230.633C649.609 230.633 653.247 237.756 657.36 235.857C662.421 233.482 655.778 216.07 655.62 214.329C655.461 212.746 663.212 201.666 660.048 191.535L663.845 180.138L622.562 176.972Z" fill="#EB9481"/>
<path d="M649.609 230.158C645.497 220.502 645.339 215.595 646.92 205.465C646.92 205.306 646.604 205.148 646.604 205.306C644.073 215.12 643.441 221.294 649.135 230.317C649.451 230.95 649.768 230.633 649.609 230.158Z" fill="#100E3A"/>
<path d="M638.695 232.058C635.215 221.769 635.057 216.387 636.006 205.623C636.006 205.465 635.69 205.465 635.69 205.623C633.95 216.07 633.317 222.402 638.22 232.216C638.379 232.533 638.853 232.533 638.695 232.058Z" fill="#100E3A"/>
<path d="M626.674 231.9C624.144 221.61 623.511 215.754 625.725 205.465C625.725 205.148 625.409 205.148 625.409 205.306C622.087 215.595 622.72 222.877 626.358 231.9C626.516 232.533 626.833 232.533 626.674 231.9Z" fill="#100E3A"/>
<path d="M584.601 66.958C596.464 89.1191 635.69 114.921 636.481 118.087C637.272 121.253 620.664 157.027 620.189 164.308C619.715 171.59 623.353 174.281 623.353 174.281L664.161 179.03C664.161 179.03 670.33 180.138 675.075 168.899C679.82 157.66 679.978 116.346 671.911 104.474C663.845 92.6015 637.114 66.4832 593.142 53.3448C582.228 49.8624 577.167 53.1865 584.601 66.958Z" fill="#67C6B4"/>
<path d="M623.195 174.123L664.952 178.871C664.952 178.871 661.947 189.794 661.789 189.952C661.631 190.11 620.506 185.203 619.873 184.57C619.241 183.937 623.195 174.123 623.195 174.123Z" fill="#67C6B4"/>
<path d="M664.003 178.555C657.676 177.605 630.945 173.489 623.827 173.806C623.511 173.806 623.511 174.123 623.827 174.281C630.312 175.705 656.885 178.871 663.845 179.03C664.477 179.188 664.635 178.713 664.003 178.555Z" fill="#100E3A"/>
<path d="M584.443 54.4529C582.703 61.8927 580.963 71.2319 574.478 75.6642C567.835 80.2547 559.294 79.1466 553.441 73.6063C553.441 73.6063 553.283 73.6063 553.283 73.7646C558.503 80.0964 566.728 81.9959 573.687 78.0386C581.28 73.7646 583.652 63.159 584.759 54.6112C584.918 54.2946 584.443 54.1363 584.443 54.4529Z" fill="#100E3A"/>
<path d="M341.966 666.098C338.328 667.364 235.042 667.047 231.088 664.515C229.665 663.565 228.716 648.527 228.241 630.323C228.083 626.366 228.083 622.251 227.925 618.135C227.45 591.383 227.608 562.891 227.608 562.891H296.729L295.148 618.135L294.831 630.323C294.831 630.323 334.374 648.211 338.328 651.376C342.441 654.542 345.604 664.831 341.966 666.098Z" fill="#EB9481"/>
<path d="M341.967 666.098C338.329 667.364 235.043 667.048 231.088 664.515C229.348 663.407 228.399 641.404 228.083 618.135H295.306L294.99 630.323C294.99 630.323 334.532 648.211 338.487 651.376C342.441 654.542 345.604 664.831 341.967 666.098Z" fill="white"/>
<path d="M341.967 666.098C338.329 667.364 235.043 667.048 231.088 664.515C229.665 663.565 228.716 648.527 228.241 630.324H294.831C294.831 630.324 334.374 648.211 338.329 651.377C342.441 654.542 345.604 664.831 341.967 666.098Z" fill="#FF9CBD"/>
<path d="M340.385 661.982C322.986 661.507 253.074 661.191 235.992 662.14C235.834 662.14 235.834 662.299 235.992 662.299C253.232 663.09 323.144 662.932 340.385 662.457C340.859 662.14 340.859 661.982 340.385 661.982Z" fill="#100E3A"/>
<path d="M331.686 647.577C327.573 647.419 323.619 649.319 321.246 651.851C319.032 654.226 317.292 657.55 317.292 661.032C317.292 661.191 317.45 661.191 317.45 661.032C318.399 654.226 324.568 648.369 331.527 647.736C331.844 647.736 331.844 647.577 331.686 647.577Z" fill="#100E3A"/>
<path d="M301.475 631.906C294.515 631.748 286.449 634.281 282.178 639.821C282.02 639.979 282.336 640.296 282.494 640.138C288.821 636.972 294.673 634.597 301.633 632.698C302.107 632.698 302.108 631.906 301.475 631.906Z" fill="#100E3A"/>
<path d="M306.853 634.123C299.893 633.964 291.826 636.497 287.556 642.037C287.398 642.196 287.714 642.512 287.872 642.354C294.199 639.188 300.051 636.814 307.011 634.914C307.485 634.756 307.327 634.123 306.853 634.123Z" fill="#100E3A"/>
<path d="M312.23 636.18C305.27 636.022 297.203 638.555 292.933 644.095C292.775 644.253 293.091 644.57 293.249 644.412C299.576 641.246 305.428 638.871 312.388 636.972C312.862 636.972 312.704 636.18 312.23 636.18Z" fill="#100E3A"/>
<path d="M317.609 638.238C310.649 638.08 302.582 640.613 298.312 646.153C298.153 646.311 298.47 646.628 298.628 646.469C304.955 643.304 310.807 640.929 317.767 639.03C318.241 639.03 318.083 638.238 317.609 638.238Z" fill="#100E3A"/>
<path d="M240.42 645.52C232.67 645.52 232.67 657.55 240.42 657.55C248.329 657.708 248.329 645.52 240.42 645.52Z" fill="#100E3A"/>
<path d="M309.067 613.544C305.587 610.695 301.158 613.386 298.944 616.552C295.464 621.459 292.934 628.266 292.617 634.281C292.617 634.439 292.775 634.439 292.775 634.439C292.934 634.914 293.566 635.389 294.041 635.072C298.944 631.59 304.638 628.582 308.434 623.834C310.649 620.826 312.389 616.235 309.067 613.544ZM300.526 628.266C298.153 630.007 295.622 631.59 293.408 633.489C294.673 630.007 295.781 626.524 297.362 623.2C298.153 621.617 298.944 620.034 299.893 618.452C301.475 616.235 308.276 610.379 308.909 617.977C309.225 622.092 303.373 626.208 300.526 628.266Z" fill="#100E3A"/>
<path d="M275.376 636.655C281.387 637.605 287.714 635.864 293.566 635.072C294.199 634.914 294.357 634.281 294.041 633.806C294.199 633.806 294.199 633.648 294.041 633.489C289.612 629.374 283.127 626.05 277.274 624.942C273.637 624.15 268.417 625.258 267.942 629.69C267.468 633.964 271.897 636.022 275.376 636.655ZM271.264 632.698C266.519 626.683 275.535 626.208 278.224 626.841C279.963 627.316 281.703 627.949 283.285 628.582C286.765 629.849 289.928 631.748 293.25 633.331C290.245 633.648 287.397 634.123 284.55 634.439C280.754 634.914 273.795 636.022 271.264 632.698Z" fill="#100E3A"/>
<path d="M64.2173 633.964C61.0538 631.748 0.315974 548.011 -0.000368681 543.42C-0.15854 541.679 11.5462 532.023 25.9398 520.943C29.1032 518.568 32.2666 516.036 35.5882 513.503C56.9414 497.357 80.0344 480.578 80.0344 480.578L120.843 536.456L75.2893 567.798L65.3245 574.763C65.3245 574.763 74.3402 617.185 74.0239 622.409C73.8657 627.474 67.3807 636.18 64.2173 633.964Z" fill="#EB9481"/>
<path d="M64.2168 633.964C61.0533 631.748 0.31547 548.011 -0.000873163 543.42C-0.159045 541.204 17.0817 527.591 35.5877 513.503L75.2888 567.798L65.324 574.763C65.324 574.763 74.3397 617.185 74.0234 622.409C73.8652 627.474 67.3802 636.18 64.2168 633.964Z" fill="white"/>
<path d="M64.2173 633.964C61.0538 631.748 0.315974 548.011 -0.000368681 543.42C-0.15854 541.679 11.5462 532.023 25.9398 520.943L65.3245 574.763C65.3245 574.763 74.3403 617.185 74.0239 622.409C73.8657 627.474 67.3807 636.18 64.2173 633.964Z" fill="#FF9CBD"/>
<path d="M66.7474 630.324C56.9408 616.077 15.8162 559.408 5.06052 546.112C4.90234 545.953 4.90234 546.112 4.90234 546.112C14.3926 560.516 55.8336 616.869 66.4311 630.482C66.7474 630.798 66.9056 630.64 66.7474 630.324Z" fill="#100E3A"/>
<path d="M73.2326 614.811C71.0182 611.328 67.0639 609.27 63.7423 608.954C60.5788 608.637 56.7827 609.112 53.9356 611.328C53.7775 611.328 53.9356 611.487 54.0938 611.487C60.1043 608.321 68.6456 609.745 73.0744 614.969L73.2326 614.811Z" fill="#100E3A"/>
<path d="M67.8548 581.253C63.9005 575.554 57.0991 570.489 49.9814 570.33C49.6651 570.33 49.6651 570.647 49.9814 570.805C56.3083 573.971 61.6861 577.454 67.2221 581.727C67.6966 582.044 68.1711 581.569 67.8548 581.253Z" fill="#100E3A"/>
<path d="M69.2786 586.793C65.3243 581.094 58.5229 576.029 51.4052 575.871C51.0889 575.871 51.0889 576.187 51.4052 576.346C57.7321 579.511 63.1099 582.994 68.6459 587.268C69.1204 587.584 69.5949 587.109 69.2786 586.793Z" fill="#100E3A"/>
<path d="M70.8597 592.333C66.9054 586.635 60.104 581.569 52.9863 581.411C52.6699 581.411 52.6699 581.727 52.9863 581.886C59.3131 585.052 64.691 588.534 70.227 592.808C70.5433 593.283 71.0178 592.65 70.8597 592.333Z" fill="#100E3A"/>
<path d="M72.2835 597.873C68.3292 592.175 61.5278 587.109 54.4101 586.951C54.0938 586.951 54.0938 587.268 54.4101 587.426C60.737 590.592 66.1148 594.074 71.6508 598.348C71.9671 598.823 72.5998 598.348 72.2835 597.873Z" fill="#100E3A"/>
<path d="M20.8779 539.938C16.291 533.606 6.48434 540.729 11.0713 547.061C15.6583 553.393 25.4649 546.27 20.8779 539.938Z" fill="#100E3A"/>
<path d="M87.3099 576.345C87.6263 571.755 82.723 569.855 78.9268 569.855C72.9163 569.855 65.9568 571.913 60.8953 575.237C60.7371 575.396 60.7371 575.396 60.8953 575.554C60.5789 576.029 60.5789 576.662 61.2116 576.82C66.9058 578.878 72.7582 581.569 78.7687 581.886C82.2484 582.044 86.9936 580.619 87.3099 576.345ZM70.3856 578.087C67.5385 577.137 64.8496 576.187 62.0025 575.396C65.4823 574.288 68.962 573.18 72.6 572.546C74.3399 572.23 76.0798 571.913 77.8196 571.913C80.5086 571.755 89.208 573.813 83.5138 578.878C80.3504 581.569 73.7072 579.195 70.3856 578.087Z" fill="#100E3A"/>
<path d="M48.7157 562.891C51.5628 568.273 56.6243 572.388 60.7368 576.662C61.2113 577.137 61.844 576.82 62.0021 576.345C62.1603 576.345 62.1603 576.345 62.3185 576.187C62.9512 570.172 61.844 563.049 59.3132 557.509C57.7315 554.185 53.9354 550.544 49.9811 552.76C46.185 554.818 46.9758 559.725 48.7157 562.891ZM49.3484 557.192C51.4046 549.911 57.0988 556.875 58.0478 559.408C58.6805 560.991 59.155 562.732 59.6296 564.474C60.5786 568.114 61.0531 571.597 61.5276 575.237C59.6296 573.021 57.4152 570.964 55.3589 568.906C53.1445 566.215 48.2412 561.149 49.3484 557.192Z" fill="#100E3A"/>
<path d="M297.995 610.379H225.078C225.078 610.379 225.869 556.875 225.078 513.503C225.078 511.92 225.078 510.496 225.078 509.071C225.078 506.063 224.92 503.056 224.92 500.206C224.92 498.782 224.92 497.199 224.762 495.774C224.762 492.767 224.603 489.759 224.603 486.91C224.603 486.435 224.603 486.118 224.603 485.643C224.603 484.535 224.603 483.427 224.603 482.478C224.603 479.47 224.445 476.462 224.287 473.771C224.287 472.189 224.287 470.764 224.129 469.498C223.971 463.008 223.654 457.784 223.496 454.618C222.547 441.005 211.475 380.379 202.459 331.466V331.308C202.301 330.516 202.143 329.883 201.985 329.092V328.933C201.827 328.142 201.669 327.509 201.669 326.717V326.559C201.51 325.767 201.352 325.134 201.194 324.343V324.184C195.184 292.051 190.28 266.724 190.28 266.724H267.152C267.152 266.724 290.877 427.55 294.199 454.143C297.204 480.42 297.995 610.379 297.995 610.379Z" fill="#474799"/>
<path d="M294.515 597.24C283.127 597.082 286.449 596.924 275.06 596.765C269.524 596.765 232.987 596.449 227.767 597.24C227.609 597.24 227.609 597.398 227.767 597.398C232.987 598.19 269.524 597.873 275.06 597.873C286.449 597.715 283.127 597.715 294.515 597.398C294.674 597.557 294.674 597.24 294.515 597.24Z" fill="#100E3A"/>
<path d="M253.866 328.933L224.604 485.643C224.604 484.535 224.604 483.427 224.604 482.478C224.604 479.47 224.446 476.462 224.287 473.771C224.287 472.189 224.287 470.764 224.129 469.498C223.971 463.008 223.655 457.784 223.497 454.618C222.548 441.005 211.476 380.379 202.46 331.466V331.308C202.302 330.516 202.143 329.883 201.985 329.092V328.933C201.827 328.142 201.669 327.509 201.669 326.717L253.866 328.933Z" fill="#100E3A"/>
<path d="M267.626 266.249C268.891 304.398 253.707 317.694 253.707 317.694C253.707 317.694 221.756 426.284 204.041 459.209C186.167 492.134 83.1977 568.273 83.1977 568.273L36.3789 507.013C36.3789 507.013 129.858 450.186 137.925 436.414C142.354 428.816 177.31 339.697 175.886 331.466C169.243 291.734 182.371 266.249 182.371 266.249H267.626Z" fill="#474799"/>
<path d="M248.804 328.933C244.375 346.662 242.793 353.469 236.783 370.723C230.93 387.977 224.129 405.072 218.909 422.485C218.909 422.643 219.067 422.801 219.226 422.643C226.343 406.022 232.196 388.926 238.206 371.831C244.217 354.26 246.115 347.295 250.069 329.25C250.227 328.458 248.962 328.142 248.804 328.933Z" fill="#100E3A"/>
<path d="M261.932 321.335C254.656 324.659 247.854 329.092 241.369 333.682C241.053 333.84 241.369 334.315 241.686 334.157C248.645 330.2 255.763 326.401 262.564 322.127C262.881 321.968 262.406 321.177 261.932 321.335Z" fill="#100E3A"/>
<path d="M257.187 268.465C257.187 268.149 256.713 268.149 256.713 268.465C257.662 277.171 257.978 284.769 257.978 293.001C257.978 296.8 257.187 317.853 250.544 317.061C249.437 316.903 248.804 315.953 248.488 314.212C248.013 312.312 248.488 309.78 248.646 307.722C248.962 303.29 248.962 298.858 248.962 294.425C248.804 286.194 248.013 277.963 246.115 269.89C246.115 269.573 245.641 269.732 245.641 269.89C246.906 281.287 247.697 292.684 247.222 304.081C246.906 309.621 245.166 318.011 250.86 318.169C256.713 318.486 258.927 304.398 259.243 300.599C260.192 290.151 259.085 278.913 257.187 268.465Z" fill="#100E3A"/>
<path d="M250.701 317.694C250.227 319.119 249.91 320.702 249.752 322.127C249.594 323.235 249.278 324.501 249.436 325.767C249.436 325.926 249.752 325.926 249.91 325.767C250.543 324.659 250.701 323.393 251.017 322.127C251.334 320.702 251.808 319.436 252.125 318.011C252.441 317.061 251.017 316.745 250.701 317.694Z" fill="#100E3A"/>
<path d="M93.3204 558.142C86.9936 548.803 88.8916 551.335 82.4066 541.996C79.2432 537.405 58.2064 507.488 54.5684 503.689C54.4102 503.531 54.2521 503.689 54.4102 503.847C56.7828 508.596 78.136 538.197 81.4576 542.787C88.1008 551.968 86.3609 549.277 93.1623 558.458C93.3204 558.617 93.4786 558.458 93.3204 558.142Z" fill="#100E3A"/>
<path d="M235.675 173.806C236.307 186.628 255.604 254.694 277.59 269.098C298.152 282.553 355.411 273.214 367.432 269.573C372.651 267.99 363.003 235.857 358.258 232.374C353.512 228.892 303.372 235.699 299.102 234.274C294.989 232.849 271.263 203.09 259.559 185.203C252.283 173.806 235.2 164.783 235.675 173.806Z" fill="#EB9481"/>
<path d="M235.358 171.432C232.986 181.879 245.956 232.216 247.221 232.216C248.487 232.216 282.335 214.962 282.494 213.379C282.494 211.796 266.518 190.11 258.926 181.562C251.492 172.856 237.098 163.833 235.358 171.432Z" fill="#FFC727"/>
<path d="M277.59 206.889C272.054 209.58 250.701 221.61 245.482 224.776C245.165 224.935 245.482 225.568 245.798 225.409C251.334 222.719 272.845 211.005 277.907 207.522C278.381 207.206 278.065 206.573 277.59 206.889Z" fill="#100E3A"/>
<path d="M221.756 171.432C208.311 179.979 199.454 195.175 195.499 209.105C191.545 222.877 181.264 267.99 183.636 269.257C185.851 270.523 213.373 290.31 237.415 285.719C261.615 281.129 271.422 274.955 274.427 271.314C277.432 267.832 264.62 204.831 261.773 193.593C258.926 182.195 250.068 169.69 247.38 169.374C244.849 169.057 226.975 168.107 221.756 171.432Z" fill="white"/>
<path d="M252.599 175.705C252.599 175.389 252.125 175.389 252.125 175.705C251.967 179.979 252.283 184.57 248.961 187.736C245.323 191.218 239.629 189.319 235.675 187.261C229.506 184.253 224.919 179.03 221.281 173.489C221.123 173.331 220.807 173.489 220.965 173.648C225.236 181.087 232.037 188.052 240.578 190.11C250.227 192.643 253.548 183.937 252.599 175.705Z" fill="#D9D9FC"/>
<path d="M230.139 295.217C229.664 295.533 219.7 294.109 208.153 289.993C207.837 289.835 207.679 289.835 207.362 289.677C207.046 289.518 206.73 289.518 206.413 289.36C206.255 289.202 205.939 289.202 205.78 289.043C205.464 288.885 205.306 288.885 204.99 288.727C204.831 288.727 204.831 288.727 204.673 288.568C204.199 288.41 203.882 288.252 203.408 288.094C203.092 287.935 202.933 287.935 202.617 287.777C202.143 287.619 201.668 287.302 201.035 287.144C200.719 286.986 200.561 286.827 200.244 286.827C192.494 283.187 184.744 278.438 178.891 271.789C176.361 268.782 185.851 235.699 192.652 213.854C192.652 213.696 192.81 213.379 192.81 213.221C193.127 212.271 193.443 211.321 193.601 210.53C193.601 210.213 193.759 210.055 193.759 209.897C193.759 209.738 193.759 209.58 193.918 209.58C194.234 208.789 194.392 207.997 194.708 207.206C194.867 207.047 194.867 206.731 194.867 206.573V206.414C195.183 205.465 195.499 204.673 195.657 203.882C195.657 203.723 195.816 203.407 195.816 203.248C196.607 200.716 197.239 198.658 197.714 197.233C201.668 185.361 223.021 169.057 223.021 169.057C223.021 169.057 231.088 294.742 230.139 295.217Z" fill="#FFC727"/>
<path d="M249.436 170.165C249.436 170.165 266.518 285.403 268.1 286.352C269.682 287.302 277.59 276.538 278.223 270.84C278.697 265.141 263.829 192.959 260.666 186.628C257.344 180.296 249.436 170.165 249.436 170.165Z" fill="#FFC727"/>
<path d="M265.885 205.781C265.727 203.723 265.569 201.665 265.411 199.608C265.411 199.449 265.252 199.449 265.252 199.608C265.252 200.716 265.252 201.982 265.252 203.09C264.462 199.924 263.671 196.758 262.88 193.593C262.88 193.434 262.563 193.434 262.563 193.593C266.36 213.221 270.788 232.691 275.534 252.003C275.692 252.319 276.166 252.161 276.008 251.844C273.003 236.49 269.523 221.136 265.885 205.781Z" fill="#100E3A"/>
<path d="M215.903 192.643L206.413 289.202C206.255 289.043 205.939 289.043 205.78 288.885C205.464 288.727 205.306 288.727 204.99 288.568C204.831 288.568 204.831 288.568 204.673 288.41C204.199 288.252 203.882 288.094 203.408 287.935C203.092 287.777 202.933 287.777 202.617 287.619C202.143 287.46 201.668 287.144 201.035 286.986C200.719 286.827 200.561 286.669 200.244 286.669C192.494 283.028 184.744 278.279 178.891 271.631C176.361 268.624 185.851 235.54 192.652 213.696C192.652 213.538 192.81 213.221 192.81 213.063C193.127 212.113 193.443 211.163 193.601 210.372C193.601 210.055 193.759 209.897 193.759 209.738C193.759 209.58 193.759 209.422 193.918 209.422C194.234 208.63 194.392 207.839 194.708 207.048C194.867 206.889 194.867 206.573 194.867 206.414V206.256L215.903 192.643Z" fill="#100E3A"/>
<path d="M245.324 184.253C239.63 186.153 229.032 178.08 224.445 171.273C224.129 170.798 224.445 165.575 224.445 159.243C224.445 155.444 224.445 151.012 224.129 147.213C224.129 146.421 226.976 147.688 226.976 147.688L232.196 148.479L249.278 151.17C249.278 151.17 247.538 159.56 248.171 166.524C248.171 167.158 248.329 167.632 248.487 168.107C248.487 168.107 248.487 168.266 248.487 168.424C249.436 171.115 250.86 182.512 245.324 184.253Z" fill="#EB9481"/>
<path d="M248.646 167.949C248.646 167.949 248.646 168.107 248.646 168.266C247.855 168.424 247.064 168.582 246.115 168.582C229.507 169.69 225.711 148.796 225.711 148.796L232.354 148.479L249.437 151.17C249.437 151.17 247.697 159.56 248.329 166.524C248.329 166.841 248.488 167.474 248.646 167.949Z" fill="#100E3A"/>
<path d="M251.967 105.107C251.967 105.107 260.192 109.222 260.983 117.928C261.932 126.635 259.243 135.499 258.452 135.816C257.819 136.29 251.967 105.107 251.967 105.107Z" fill="#100E3A"/>
<path d="M218.751 116.187C215.746 124.893 219.226 150.379 225.236 156.235C233.936 164.783 248.646 166.208 256.08 155.602C263.197 145.313 257.978 112.23 251.334 106.848C241.37 98.775 223.338 103.365 218.751 116.187Z" fill="#EB9481"/>
<path d="M219.384 141.831C222.547 142.306 224.445 132.808 224.92 129.326C225.236 126.16 224.762 116.504 224.762 115.871C224.762 115.237 238.997 122.361 246.115 119.036C253.233 115.712 257.187 108.273 256.712 105.107C256.396 101.941 245.799 95.4508 237.732 96.4005C229.665 97.192 220.491 109.064 220.491 109.064C220.491 109.064 223.496 104.157 223.338 103.682C223.18 103.365 218.277 106.215 217.96 110.014C217.96 110.014 218.277 105.265 217.802 105.265C217.328 105.265 214.006 109.855 215.43 112.705C215.43 112.705 211.475 117.454 211.634 121.886C211.95 126.16 215.746 141.197 219.384 141.831Z" fill="#100E3A"/>
<path d="M251.177 116.504C249.12 117.928 247.064 119.353 244.533 120.145C241.845 120.936 238.997 120.619 236.309 120.145C233.62 119.511 231.089 118.562 228.558 117.137C226.502 115.871 224.446 114.288 222.389 113.18C221.915 112.863 221.44 113.654 221.757 114.129C225.553 118.245 231.405 121.094 236.783 121.886C242.477 122.677 247.381 120.778 251.177 116.504C251.335 116.504 251.177 116.345 251.177 116.504Z" fill="#100E3A"/>
<path d="M223.18 140.089C223.18 140.089 217.644 131.7 213.847 133.758C210.051 135.657 214.164 147.688 218.434 149.429C222.705 151.17 224.445 147.213 224.445 147.213L223.18 140.089Z" fill="#EB9481"/>
<path d="M215.113 137.24C214.955 137.24 214.955 137.24 215.113 137.24C218.118 138.665 219.7 141.514 220.649 144.522C219.7 143.414 218.593 142.78 217.011 143.73C216.853 143.73 217.011 143.889 217.169 143.889C218.434 143.572 219.383 143.889 220.174 144.838C220.807 145.63 221.123 146.421 221.598 147.371C221.756 147.688 222.23 147.529 222.072 147.213C222.072 143.255 219.225 137.715 215.113 137.24Z" fill="#100E3A"/>
<path d="M240.737 133.758L240.579 133.916C240.895 135.657 240.895 137.557 239.472 138.348V138.507C241.37 138.032 241.212 135.341 240.737 133.758Z" fill="#100E3A"/>
<path d="M238.997 132.175C236.15 132.333 236.783 137.873 239.313 137.715C241.844 137.557 241.212 132.017 238.997 132.175Z" fill="#100E3A"/>
<path d="M251.335 132.491C251.335 132.491 251.493 132.65 251.335 132.491C251.651 134.391 251.968 136.29 253.549 136.765V136.924C251.651 136.765 251.177 134.233 251.335 132.491Z" fill="#100E3A"/>
<path d="M252.6 130.592C255.289 130.117 256.08 135.657 253.549 136.132C251.018 136.449 250.385 130.909 252.6 130.592Z" fill="#100E3A"/>
<path d="M236.467 129.8C237.258 129.484 237.89 129.167 238.523 128.851C239.314 128.534 239.947 128.218 240.421 127.426C240.738 126.951 240.421 126.318 240.105 126.001C239.156 125.368 238.049 125.527 237.1 126.001C235.992 126.476 235.36 127.109 234.727 128.059C234.411 129.167 235.518 130.117 236.467 129.8Z" fill="#100E3A"/>
<path d="M254.498 127.584C253.707 127.584 253.075 127.426 252.284 127.268C251.493 127.109 250.702 127.109 250.069 126.476C249.753 126.16 249.753 125.368 250.069 125.052C250.702 124.102 251.809 124.102 252.916 124.26C254.024 124.418 254.973 124.893 255.763 125.685C256.396 126.318 255.605 127.584 254.498 127.584Z" fill="#100E3A"/>
<path d="M242.636 148.796C243.11 149.112 243.585 149.745 244.217 149.745C244.85 149.745 245.483 149.429 245.957 149.112C245.957 149.112 246.116 149.112 246.116 149.27C245.799 149.904 244.85 150.537 244.059 150.379C243.268 150.379 242.794 149.745 242.636 148.954C242.478 148.796 242.636 148.796 242.636 148.796Z" fill="#100E3A"/>
<path d="M242.003 144.047C243.11 145.471 244.534 146.105 246.115 146.263C246.748 146.263 247.539 146.263 248.172 146.105C248.33 146.105 248.488 146.105 248.646 145.946C248.804 145.946 248.804 145.946 248.962 145.788C249.121 145.788 249.279 145.63 249.279 145.313V145.155V144.997C249.121 143.73 248.804 141.672 248.804 141.672C249.279 141.831 251.968 142.78 251.81 141.989C250.861 136.29 249.911 129.959 247.855 124.418C247.855 124.26 247.539 124.26 247.539 124.418C248.172 129.959 249.753 135.341 250.544 140.881C249.753 140.723 248.33 140.248 247.697 140.248C247.539 140.248 248.33 144.047 248.33 144.68C246.115 145.155 244.376 144.68 242.003 143.414C242.003 143.73 242.003 143.889 242.003 144.047Z" fill="#100E3A"/>
<path d="M348.163 186.655L97.7041 317.765L140.372 399.398L390.83 268.288L348.163 186.655Z" fill="#A7A5D8"/>
<path d="M186.009 317.22C190.279 325.292 190.279 334.632 186.958 342.388C184.427 348.245 179.84 353.469 173.671 356.635C167.503 359.8 160.701 360.592 154.374 359.326C145.991 357.743 138.399 352.361 134.128 344.288C126.694 330.041 132.23 312.312 146.466 304.873C161.018 297.433 178.575 302.973 186.009 317.22Z" fill="#D9D9FC"/>
<path d="M166.079 318.802C168.768 324.026 166.87 330.674 161.492 333.365C156.272 336.056 149.629 334.157 146.94 328.775C144.251 323.551 146.149 316.903 151.527 314.212C156.747 311.521 163.39 313.42 166.079 318.802Z" fill="white"/>
<path d="M186.325 341.122C186.483 341.597 186.8 341.913 186.958 342.388C184.427 348.245 179.84 353.469 173.672 356.634C167.503 359.8 160.701 360.592 154.375 359.325C154.058 358.851 153.9 358.534 153.584 358.059C148.839 349.036 152.318 337.956 161.334 333.207C170.508 328.617 181.58 332.099 186.325 341.122Z" fill="white"/>
<path d="M339.325 228.895L199.029 302.337L200.276 304.722L340.572 231.279L339.325 228.895Z" fill="#474799"/>
<path d="M251.996 284.103L202.941 309.782L204.188 312.167L253.242 286.488L251.996 284.103Z" fill="white"/>
<path d="M347.24 243.899L206.944 317.341L208.191 319.726L348.487 246.284L347.24 243.899Z" fill="white"/>
<path d="M351.022 251.404L210.726 324.847L211.972 327.231L352.268 253.789L351.022 251.404Z" fill="white"/>
<path d="M300.458 287.501L214.683 332.403L215.929 334.787L301.704 289.885L300.458 287.501Z" fill="white"/>
<path d="M195.024 279.546L199.136 282.395L203.723 280.812L202.141 285.561L205.147 289.36H200.243L197.396 293.475L195.973 288.727L191.228 287.302L195.182 284.453L195.024 279.546Z" fill="#FFC727"/>
<path d="M212.739 270.365L216.694 273.214L221.281 271.631L219.699 276.38L222.704 280.179H217.801L215.112 284.295L213.53 279.546L208.785 278.121L212.739 275.272V270.365Z" fill="#FFC727"/>
<path d="M230.296 261.184L234.25 264.033L238.837 262.45L237.414 267.041L240.419 270.998H235.516L232.669 275.114L231.087 270.365L226.342 268.94L230.454 266.091L230.296 261.184Z" fill="#FFC727"/>
<path d="M247.854 252.003L251.808 254.852L256.553 253.269L254.971 257.86L257.977 261.817H253.073L250.226 265.774L248.803 261.184L244.058 259.759L248.012 256.91L247.854 252.003Z" fill="#FFC727"/>
<path d="M265.569 242.663L269.523 245.671L274.11 243.93L272.528 248.679L275.533 252.636H270.63L267.783 256.593L266.359 252.003L261.614 250.578L265.569 247.57V242.663Z" fill="#FFC727"/>
<path d="M369.646 217.811C373.601 222.085 381.351 226.359 383.091 230.317C384.673 233.799 381.984 236.015 381.984 236.015C381.984 236.015 386.729 236.807 387.678 240.606C388.152 242.505 385.464 245.038 385.464 245.038C385.464 245.038 389.101 245.829 389.892 249.312C390.367 252.003 387.678 254.219 387.678 254.219C387.678 254.219 390.841 256.593 390.525 259.601C389.892 265.616 366.957 272.739 360.789 265.299C357.942 261.817 363.636 260.392 363.636 260.392C363.636 260.392 354.936 260.551 353.355 255.802C351.773 251.053 359.207 249.628 359.207 249.628C359.207 249.628 350.824 249.628 349.717 244.563C348.451 239.339 356.202 239.181 356.202 239.181C356.202 239.181 350.033 237.281 350.033 233.324C350.033 226.676 365.218 230.791 369.805 228.1L365.376 219.711L369.646 217.811Z" fill="#EB9481"/>
<path d="M376.448 223.668C373.126 219.394 377.239 211.48 374.708 206.731C371.228 200.557 363.162 211.005 365.851 220.661L369.489 227.309L376.448 223.668Z" fill="#EB9481"/>
<path d="M387.361 254.694C387.52 254.535 387.52 254.694 387.361 254.694C380.402 258.968 371.544 261.342 363.477 260.709C363.161 260.709 363.161 260.234 363.477 260.234C371.861 259.284 379.453 257.86 387.361 254.694Z" fill="#100E3A"/>
<path d="M385.78 245.196C385.939 245.196 385.939 245.354 385.78 245.354C378.663 249.628 368.382 252.161 359.208 250.103C358.891 250.103 358.733 249.628 359.049 249.628C365.218 250.578 378.504 248.045 385.78 245.196Z" fill="#100E3A"/>
<path d="M355.727 239.181C364.743 240.606 373.285 239.181 381.826 236.332C381.984 236.332 381.984 236.49 381.826 236.49C378.03 239.023 372.336 240.289 367.907 240.764C363.636 241.397 359.682 240.922 355.569 239.339C355.569 239.339 355.569 239.023 355.727 239.181Z" fill="#100E3A"/>
<path d="M212.741 174.756C201.827 181.562 150.263 227.467 148.523 253.744C146.941 278.279 173.356 311.046 180.632 321.493C183.795 326.084 215.272 306.93 216.062 301.074C216.853 295.217 190.439 260.076 189.648 255.802C188.857 251.37 204.832 220.502 214.797 201.349C220.808 189.319 220.333 169.849 212.741 174.756Z" fill="#EB9481"/>
<path d="M232.037 331.149C236.308 336.69 246.273 340.33 243.426 344.604C240.737 348.403 234.094 345.079 234.094 345.079C234.094 345.079 240.579 351.253 236.466 354.418C232.512 357.584 225.869 352.519 225.869 352.519C225.869 352.519 231.405 357.426 227.292 360.275C223.022 363.125 216.695 359.959 216.695 359.959C216.695 359.959 217.327 362.491 213.373 363.125C207.837 364.233 198.505 356.001 194.709 350.619C190.913 345.237 180.948 322.76 179.524 319.277L213.848 294.425C213.848 294.425 225.078 300.915 230.297 304.873C235.517 308.83 249.278 326.717 245.166 330.358C240.895 333.999 231.405 321.335 228.399 318.644C225.394 315.953 224.287 316.27 224.761 318.486C224.761 320.069 230.139 328.775 232.037 331.149Z" fill="#EB9481"/>
<path d="M233.777 344.763C224.761 339.539 221.598 335.74 216.852 326.559C216.694 326.401 216.536 326.559 216.536 326.717C220.49 336.056 223.654 341.438 233.619 345.237C233.935 345.396 234.093 344.921 233.777 344.763Z" fill="#100E3A"/>
<path d="M226.184 352.677C217.168 346.504 213.846 342.23 208.152 333.207C207.994 333.049 207.836 333.207 207.836 333.365C212.739 342.863 216.061 348.087 225.709 353.152C226.184 353.31 226.5 352.994 226.184 352.677Z" fill="#100E3A"/>
<path d="M216.378 359.8C208.153 353.152 204.198 348.72 199.77 339.222C199.611 339.064 199.295 339.064 199.453 339.381C203.091 349.67 207.836 355.052 216.061 360.117C216.694 360.434 216.852 360.275 216.378 359.8Z" fill="#100E3A"/>
<path d="M214.639 173.331C204.358 176.339 166.713 212.271 167.346 213.379C167.82 214.487 199.613 235.699 201.036 235.065C202.46 234.274 213.532 209.738 217.328 198.975C221.124 188.052 222.073 171.115 214.639 173.331Z" fill="#FFC727"/>
<path d="M204.358 227.467C199.455 223.985 178.418 211.163 173.198 208.156C172.882 207.997 172.566 208.472 172.882 208.789C177.943 212.271 198.664 225.409 204.042 228.1C204.358 228.259 204.674 227.784 204.358 227.467Z" fill="#100E3A"/>
</svg>
