<svg width="48" height="48" viewBox="0 0 48 48" fill="none" xmlns="http://www.w3.org/2000/svg">
<circle opacity="0.2" cx="24" cy="24" r="24" fill="#00B2E2"/>
<path d="M26.6251 17.7701C27.6019 17.9607 28.4995 18.4384 29.2032 19.1421C29.9069 19.8458 30.3846 20.7434 30.5751 21.7201L26.6251 17.7701ZM26.6251 13.7701C28.6544 13.9956 30.5467 14.9043 31.9914 16.3471C33.436 17.79 34.3471 19.6812 34.5751 21.7101L26.6251 13.7701ZM33.5751 29.6901V32.6901C33.5763 32.9686 33.5192 33.2443 33.4076 33.4995C33.2961 33.7547 33.1324 33.9837 32.9272 34.172C32.722 34.3603 32.4797 34.5036 32.2159 34.5928C31.9521 34.6821 31.6725 34.7152 31.3951 34.6901C28.318 34.3558 25.3621 33.3043 22.7651 31.6201C20.349 30.0848 18.3005 28.0363 16.7651 25.6201C15.0751 23.0113 14.0234 20.0411 13.6951 16.9501C13.6701 16.6736 13.703 16.3949 13.7916 16.1318C13.8803 15.8686 14.0227 15.6268 14.2099 15.4218C14.3971 15.2167 14.6249 15.0529 14.8789 14.9407C15.1329 14.8285 15.4075 14.7704 15.6851 14.7701H18.6851C19.1704 14.7654 19.6409 14.9372 20.0089 15.2537C20.3769 15.5701 20.6172 16.0096 20.6851 16.4901C20.8118 17.4502 21.0466 18.3929 21.3851 19.3001C21.5197 19.6581 21.5488 20.0471 21.469 20.421C21.3893 20.795 21.204 21.1383 20.9351 21.4101L19.6651 22.6801C21.0887 25.1837 23.1616 27.2566 25.6651 28.6801L26.9351 27.4101C27.207 27.1413 27.5503 26.956 27.9242 26.8762C28.2982 26.7965 28.6872 26.8256 29.0451 26.9601C29.9524 27.2987 30.8951 27.5335 31.8551 27.6601C32.3409 27.7287 32.7845 27.9733 33.1017 28.3476C33.4188 28.7219 33.5873 29.1997 33.5751 29.6901Z" stroke="#00B2E2" stroke-width="2" stroke-linecap="round" stroke-linejoin="round"/>
</svg>
