<?xml version="1.0" encoding="utf-8"?>
<!-- Generator: Adobe Illustrator 25.2.3, SVG Export Plug-In . SVG Version: 6.00 Build 0)  -->
<svg version="1.1" id="Layer_1" xmlns="http://www.w3.org/2000/svg" xmlns:xlink="http://www.w3.org/1999/xlink" x="0px" y="0px"
	 viewBox="0 0 604 123.3" style="enable-background:new 0 0 604 123.3;" xml:space="preserve">
<style type="text/css">
	.st0{fill:#10B0E2;}
</style>
<g>
	<polygon id="XMLID_84_" class="st0" points="256.5,0 283.9,0 375.6,123.3 347.4,123.3 	"/>
	<polygon id="XMLID_82_" class="st0" points="300.2,0 327.6,0 419.3,123.3 391.1,123.3 	"/>
	<polygon id="XMLID_80_" class="st0" points="453.8,110.9 371.3,0 343.8,0 434.8,123.3 462.9,123.3 604,123.3 604,110.9 	"/>
	<polygon id="XMLID_78_" class="st0" points="243.6,4.1 249.2,0 218.4,0 222.6,4.2 145.8,110.9 0,110.9 0,123.3 154.4,123.3 
		233.3,16.9 310.8,123.3 330.9,123.3 	"/>
	<g id="XMLID_14_">
		<g>
			<rect id="XMLID_42_" x="216.3" y="87.9" class="st0" width="14.9" height="14.9"/>
			<rect id="XMLID_41_" x="236.2" y="87.9" class="st0" width="14.9" height="14.9"/>
			<g id="XMLID_38_">
				<rect id="XMLID_40_" x="216.3" y="107.3" class="st0" width="14.9" height="14.9"/>
				<rect id="XMLID_39_" x="236.2" y="107.3" class="st0" width="14.9" height="14.9"/>
			</g>
		</g>
	</g>
</g>
</svg>
