<svg width="162" height="56" viewBox="0 0 162 56" fill="none" xmlns="http://www.w3.org/2000/svg">
<path d="M68.7926 0H76.1475L100.728 32.8797H93.1797L68.7926 0Z" fill="white"/>
<path d="M80.5161 0H87.871L112.452 32.8797H104.903L80.5161 0Z" fill="white"/>
<path d="M121.714 29.5808L99.5668 0H92.212L116.599 32.8797H124.175H162V29.5808H121.714Z" fill="white"/>
<path d="M65.3364 1.09966L66.8295 0H58.5622L59.6959 1.12715L39.0968 29.5808H0V32.8797H41.4194L62.5714 4.50859L83.3641 32.8797H88.7558L65.3364 1.09966Z" fill="white"/>
<path d="M62.0461 23.4227H58.0369V27.4089H62.0461V23.4227Z" fill="white"/>
<path d="M67.3548 23.4227H63.3456V27.4089H67.3548V23.4227Z" fill="white"/>
<path d="M62.0461 28.6186H58.0369V32.6048H62.0461V28.6186Z" fill="white"/>
<path d="M67.3548 28.6186H63.3456V32.6048H67.3548V28.6186Z" fill="white"/>
<path d="M3.87097 41.2921L3.84332 55.6151H0.3871L0.41475 38.1031H6.96774C7.88019 38.1031 8.73733 38.268 9.53917 38.5704C10.3134 38.8454 10.9217 39.2302 11.3917 39.6976C11.8618 40.1374 12.2488 40.6598 12.5806 41.2096C12.8848 41.7594 13.106 42.3093 13.2442 42.8041C13.3825 43.299 13.4378 43.7663 13.4378 44.1787C13.4378 45.1959 13.1889 46.2131 12.6636 47.2302C12.1383 48.2199 11.4194 48.9897 10.5069 49.512L15.235 55.6701H9.89862L5.52996 50.0344L5.44701 47.1478C6 47.1752 6.63595 47.2027 7.35484 47.2027C8.07374 47.1752 8.68203 46.9003 9.23503 46.3505C9.78802 45.7732 10.0645 45.0584 10.0645 44.1787C10.0645 43.3539 9.78802 42.6667 9.20738 42.1168C8.62673 41.567 7.93549 41.2646 7.13364 41.2646H3.87097V41.2921Z" fill="white"/>
<path d="M21.1521 41.0722V45.4708H29.6959V48.5223H21.1521V52.646H30.7742V55.6701H17.7788V38.1031H30.8019V41.0722H21.1521Z" fill="white"/>
<path d="M33.5668 53.3608L35.3917 50.6667C36.2765 51.2715 37.1889 51.7938 38.129 52.2337C39.0691 52.6735 40.0645 52.8935 41.0876 52.8935C41.6406 52.8935 42.1106 52.8385 42.5253 52.701C42.9401 52.5636 43.2995 52.3986 43.576 52.1787C43.8525 51.9588 44.0737 51.7113 44.2396 51.4364C44.3779 51.1615 44.4608 50.8866 44.4608 50.6117C44.4608 50.2543 44.3502 49.9519 44.129 49.7045C43.9078 49.457 43.6313 49.2646 43.2719 49.0997C42.9124 48.9347 42.47 48.7972 42 48.6873C41.5023 48.5773 41.0046 48.4674 40.4793 48.3849C40.1198 48.3299 39.7051 48.2474 39.235 48.1649C38.765 48.0825 38.2949 47.945 37.7972 47.8076C37.2995 47.6426 36.8018 47.4502 36.3318 47.2027C35.8617 46.9553 35.4194 46.6529 35.0323 46.268C34.6452 45.8832 34.341 45.4433 34.0922 44.921C33.871 44.3986 33.7327 43.7938 33.7327 43.079C33.7327 42.0619 33.9539 41.2096 34.3687 40.5223C34.7834 39.835 35.3088 39.3127 35.9723 38.9278C36.6359 38.543 37.3548 38.268 38.1567 38.1031C38.9585 37.9381 39.7327 37.8557 40.4516 37.8557C41.1982 37.8557 41.8617 37.9106 42.4424 37.9931C43.023 38.0756 43.5484 38.2405 44.0461 38.4055C44.5438 38.5979 45.0415 38.8179 45.5115 39.0928C45.9816 39.3677 46.5069 39.6976 47.0323 40.0825L45.1521 42.7216C44.3226 42.1443 43.5207 41.7045 42.7465 41.4021C41.9723 41.0997 41.1705 40.9347 40.3134 40.9347C40.0369 40.9347 39.7051 40.9622 39.318 41.0447C38.9585 41.1271 38.5991 41.2371 38.2673 41.4021C37.9355 41.567 37.659 41.7594 37.4378 42.0069C37.2166 42.2543 37.106 42.5567 37.106 42.9141C37.106 43.2715 37.2442 43.5739 37.4931 43.7938C37.7419 44.0412 38.0737 44.2337 38.4885 44.3986C38.9032 44.5636 39.3456 44.701 39.8157 44.811C40.2857 44.921 40.7558 45.0309 41.2258 45.1409C41.5576 45.2234 41.9723 45.3058 42.4147 45.3883C42.8848 45.4708 43.3548 45.5808 43.8525 45.7182C44.3502 45.8557 44.8203 46.0481 45.318 46.2955C45.8157 46.543 46.2304 46.8454 46.6175 47.2302C47.0046 47.6151 47.3088 48.0825 47.5299 48.6323C47.7511 49.1821 47.8894 49.8419 47.8894 50.6392C47.8894 51.5464 47.7235 52.3436 47.4194 53.0034C47.0876 53.6632 46.6452 54.2405 46.0369 54.6804C45.4286 55.1203 44.7373 55.4502 43.9078 55.6701C43.0783 55.89 42.1659 56 41.1705 56C40.2581 56 39.4562 55.945 38.7373 55.8076C38.0461 55.6701 37.4101 55.4777 36.8295 55.2577C36.2488 55.0378 35.6959 54.7629 35.1982 54.433C34.6452 54.0756 34.1198 53.7457 33.5668 53.3608Z" fill="white"/>
<path d="M54.553 55.6426H51.1521V38.1031H54.5253V55.6426H54.553Z" fill="white"/>
<path d="M76.6728 38.1031V55.6426H73.2995V46.7629L67.7696 53.3608L62.2673 46.7629V55.6426H58.894V38.1031H59.1152L67.7696 48.2199L76.4516 38.1031H76.6728Z" fill="white"/>
<path d="M78.4701 55.6426L87.5115 38.1031H87.8433L96.8848 55.6426H93.1797L91.7973 52.8935H83.4747L82.1198 55.6426H78.4701ZM85.1337 49.9519H90.1659L87.6498 44.646L85.1337 49.9519Z" fill="white"/>
<path d="M101.475 41.2921L101.447 55.6151H97.9631L97.9908 38.1031H104.544C105.456 38.1031 106.313 38.268 107.115 38.5704C107.889 38.8454 108.498 39.2302 108.968 39.6976C109.438 40.1374 109.825 40.6598 110.157 41.2096C110.461 41.7594 110.682 42.3093 110.82 42.8041C110.959 43.299 111.014 43.7663 111.014 44.1787C111.014 45.1959 110.765 46.2131 110.24 47.2302C109.714 48.2199 108.995 48.9897 108.083 49.512L112.811 55.6701H107.502L103.106 50.0344L103.023 47.1478C103.576 47.1752 104.212 47.2027 104.931 47.2027C105.65 47.1752 106.258 46.9003 106.811 46.3505C107.364 45.7732 107.641 45.0584 107.641 44.1787C107.641 43.3539 107.364 42.6667 106.783 42.1168C106.203 41.567 105.512 41.2646 104.71 41.2646H101.475V41.2921Z" fill="white"/>
<path d="M126.166 55.6426L118.756 47.6426V55.6426H115.383V38.0756H118.756V47.0103L125.779 38.1031H129.926L122.654 47.1753L130.618 55.6426H126.166Z" fill="white"/>
<path d="M136.507 41.0722V45.4708H145.051V48.5223H136.507V52.646H146.129V55.6701H133.106V38.1031H146.129V41.0722H136.507Z" fill="white"/>
<path d="M159.401 41.0722L156.055 41.0172L156.111 55.6426H152.958L152.903 41.0172H147.65L149.364 38.1031H161.143L159.401 41.0722Z" fill="white"/>
</svg>
