<svg width="30" height="30" viewBox="0 0 30 30" fill="none" xmlns="http://www.w3.org/2000/svg">
<circle cx="15" cy="15" r="14.5" fill="white" fill-opacity="0.2" stroke="white"/>
<g clip-path="url(#clip0_19_192)">
<path d="M18.6933 17.4337C18.2767 17.0224 17.7567 17.0224 17.3428 17.4337C17.0271 17.7467 16.7114 18.0598 16.4009 18.3782C16.316 18.4657 16.2444 18.4843 16.1409 18.4259C15.9366 18.3145 15.7191 18.2243 15.5227 18.1023C14.6074 17.5265 13.8406 16.7863 13.1614 15.9532C12.8245 15.5393 12.5247 15.0962 12.3151 14.5974C12.2726 14.4966 12.2806 14.4303 12.3628 14.348C12.6786 14.0429 12.9863 13.7299 13.2967 13.4168C13.7292 12.9817 13.7292 12.4723 13.2941 12.0345C13.0473 11.7851 12.8006 11.541 12.5539 11.2916C12.2992 11.0369 12.0471 10.7796 11.7897 10.5275C11.3732 10.1216 10.8532 10.1216 10.4393 10.5302C10.1209 10.8432 9.8158 11.1643 9.49211 11.472C9.19231 11.7559 9.04108 12.1035 9.00924 12.5094C8.95883 13.17 9.12067 13.7935 9.34884 14.4011C9.8158 15.6587 10.5268 16.7757 11.3891 17.7998C12.5539 19.1847 13.9441 20.2805 15.5705 21.0711C16.3028 21.4267 17.0616 21.6999 17.8867 21.745C18.4545 21.7769 18.948 21.6336 19.3433 21.1905C19.6139 20.8881 19.919 20.6121 20.2056 20.3229C20.6301 19.8931 20.6327 19.3731 20.2109 18.9486C19.7068 18.4419 19.2 17.9378 18.6933 17.4337Z" fill="white"/>
<path d="M18.1871 15.3194L19.1661 15.1523C19.0122 14.2529 18.5877 13.4383 17.943 12.791C17.2611 12.1091 16.3988 11.6793 15.449 11.5466L15.311 12.531C16.046 12.6344 16.7146 12.9661 17.2425 13.494C17.7413 13.9928 18.0677 14.6243 18.1871 15.3194Z" fill="white"/>
<path d="M19.7176 11.0637C18.5873 9.93342 17.1573 9.21972 15.5786 8.99951L15.4407 9.98383C16.8044 10.1749 18.0408 10.793 19.0171 11.7668C19.9431 12.6927 20.5507 13.8627 20.7709 15.1495L21.7499 14.9824C21.4925 13.4913 20.7894 12.1382 19.7176 11.0637Z" fill="white"/>
</g>
<defs>
<clipPath id="clip0_19_192">
<rect width="12.75" height="12.75" fill="white" transform="translate(9 8.99951)"/>
</clipPath>
</defs>
</svg>
