<svg width="30" height="30" viewBox="0 0 30 30" fill="none" xmlns="http://www.w3.org/2000/svg">
<circle cx="15" cy="15" r="14.5" fill="white" fill-opacity="0.2" stroke="white"/>
<g clip-path="url(#clip0_19_203)">
<path d="M20.7695 9.59863H9.23053C9.04112 9.59863 8.86379 9.6458 8.70337 9.72355L14.9727 16.0743L16.3778 14.7064C16.3778 14.7064 16.3779 14.7062 16.378 14.7062C16.378 14.7061 16.3781 14.7061 16.3781 14.7061L21.2968 9.72367C21.1364 9.64586 20.959 9.59863 20.7695 9.59863Z" fill="white"/>
<path d="M21.8768 10.3118L17.248 15.0005L21.8767 19.6892C21.9534 19.5267 22 19.3471 22 19.1552V10.8456C22 10.6538 21.9535 10.4742 21.8768 10.3118Z" fill="white"/>
<path d="M8.12332 10.3113C8.04657 10.4738 8 10.6534 8 10.8453V19.1549C8 19.3467 8.04651 19.5264 8.12321 19.6888L12.752 15.0001L8.12332 10.3113Z" fill="white"/>
<path d="M16.6675 15.5877L15.2621 16.9558C15.182 17.037 15.0771 17.0776 14.9722 17.0776C14.8672 17.0776 14.7623 17.037 14.6822 16.9558L13.3315 15.5876L8.70264 20.2764C8.86309 20.3542 9.04052 20.4014 9.22998 20.4014H20.769C20.9584 20.4014 21.1357 20.3542 21.2961 20.2765L16.6675 15.5877Z" fill="white"/>
</g>
<defs>
<clipPath id="clip0_19_203">
<rect width="14" height="12" fill="white" transform="translate(8 9)"/>
</clipPath>
</defs>
</svg>
