<svg width="100" height="100" viewBox="0 0 100 100" fill="none" xmlns="http://www.w3.org/2000/svg">
<rect opacity="0.1" width="100" height="100" rx="50" fill="#00B2E2"/>
<path d="M56.1875 70C55.2813 69.823 54.3542 69.7292 53.4792 69.448C48.5729 67.8542 45.4583 64.5417 44.4792 59.4688C43.25 53.0521 46.8958 46.9688 53.0208 44.8855C60.2188 42.4375 68.0521 46.8542 69.6875 54.2917C69.8229 54.9063 69.8958 55.5417 70.0104 56.1667C70.0104 56.7917 70.0104 57.4167 70.0104 58.0417C69.9896 58.1563 69.9479 58.2709 69.9375 58.375C69.4479 63.6042 65.6458 68.1459 60.5729 69.5105C59.75 69.7292 58.8958 69.8334 58.0521 69.9896C57.4375 70 56.8125 70 56.1875 70ZM58.2917 62.7709C58.4375 62.698 58.5729 62.6459 58.6979 62.573C60.4583 61.6875 61.1667 59.5417 60.2292 57.8125C59.5625 56.5938 58.5104 55.9792 57.1146 55.9271C56.4792 55.9063 55.9896 55.4375 55.9583 54.8334C55.9167 54.25 56.3438 53.7084 56.9375 53.6042C57.5104 53.5 58.0625 53.8646 58.25 54.4584C58.2813 54.5521 58.3021 54.6459 58.3229 54.7292C59.1042 54.7292 59.8646 54.7292 60.6458 54.7292C60.5417 53.125 59.7396 52.0625 58.2708 51.4375C58.2708 50.6042 58.2708 49.7605 58.2708 48.9167C57.4792 48.9167 56.7292 48.9167 55.9479 48.9167C55.9479 49.625 55.9271 50.3125 55.9583 50.9896C55.9688 51.3125 55.8854 51.4792 55.5729 51.6355C53.5521 52.6146 52.9792 55.1771 54.3646 56.9271C55.0625 57.8021 55.9896 58.2292 57.1042 58.2709C57.7708 58.2917 58.2604 58.7605 58.2813 59.3855C58.3125 59.9688 57.875 60.5 57.2813 60.5938C56.6979 60.6875 56.1458 60.3125 55.9688 59.6771C55.9479 59.6042 55.9375 59.5313 55.9167 59.448C55.1458 59.448 54.3854 59.448 53.5938 59.448C53.6875 61.0625 54.5104 62.125 55.9583 62.75C55.9583 63.5938 55.9583 64.4167 55.9583 65.2605C56.75 65.2605 57.5 65.2605 58.2813 65.2605C58.2917 64.4271 58.2917 63.6042 58.2917 62.7709Z" fill="#00B2E2"/>
<path d="M44.3854 30C45.2083 30.1042 46.0416 30.1771 46.8541 30.3229C49.1354 30.7083 51.302 31.3958 53.1979 32.7604C53.7395 33.1562 54.2604 33.6146 54.6979 34.1146C56.4062 36.0729 56.3541 38.4688 54.5833 40.375C53.2708 41.7917 51.6041 42.625 49.802 43.1979C46.2395 44.3437 42.6041 44.4792 38.927 43.8542C36.7083 43.4688 34.5833 42.7917 32.7083 41.4896C31.5 40.6458 30.5104 39.6146 30.125 38.1354C30.0937 38 30.0416 37.8646 30.0104 37.7292C30.0104 37.3646 30.0104 37 30.0104 36.6354C30.4166 34.7604 31.625 33.4896 33.1875 32.5C35.052 31.3229 37.1041 30.6771 39.2604 30.3125C40.052 30.1771 40.8541 30.1042 41.6458 30C42.5625 30 43.4791 30 44.3854 30Z" fill="#00B2E2"/>
<path d="M30.0104 42.3438C32.9583 44.9583 36.5312 46 40.3541 46.4167C42.3125 46.6354 44.2708 46.5937 46.3229 46.3437C46.052 46.6458 45.8333 46.8958 45.6145 47.1458C44.625 48.2813 43.8125 49.5312 43.2187 50.9167C43.1041 51.1667 42.9791 51.2604 42.6979 51.25C39.6458 51.1667 36.6979 50.6771 33.9479 49.2708C32.7708 48.6667 31.7083 47.8958 30.9062 46.8125C30.4479 46.1979 30.1979 45.4896 30.0104 44.7604C30.0104 43.9583 30.0104 43.1562 30.0104 42.3438Z" fill="#00B2E2"/>
<path d="M30.0104 56.4062C31.1875 57.4479 32.4895 58.2812 33.9479 58.8958C36.375 59.9167 38.9062 60.4167 41.5208 60.5625C42.2812 60.6042 42.2916 60.5938 42.5 61.3125C42.8645 62.5938 43.3958 63.8021 44.0833 64.9479C44.1354 65.0312 44.177 65.125 44.25 65.2604C43.9166 65.2812 43.6145 65.3125 43.3229 65.3125C40.2083 65.3333 37.1875 64.875 34.3437 63.5312C33.0104 62.9062 31.8229 62.0833 30.927 60.8854C30.4687 60.2708 30.2187 59.5729 30.0312 58.8333C30.0104 58.0208 30.0104 57.2188 30.0104 56.4062Z" fill="#00B2E2"/>
<path d="M30.0104 49.375C31.2396 50.4688 32.625 51.3333 34.1562 51.9479C36.4792 52.8958 38.9063 53.3646 41.3958 53.5208C41.625 53.5312 41.8646 53.5417 42.0938 53.5625C42.1458 53.5625 42.1875 53.5833 42.2917 53.6042C41.9688 55.1146 41.7812 56.625 41.9375 58.2396C41.25 58.1771 40.5938 58.1354 39.9479 58.0521C37.5729 57.7396 35.2917 57.125 33.2083 55.875C32.25 55.3021 31.3646 54.6146 30.7917 53.6563C30.4479 53.0833 30.2604 52.4271 30 51.8125C30.0104 50.9896 30.0104 50.1875 30.0104 49.375Z" fill="#00B2E2"/>
</svg>
