<svg width="100" height="100" viewBox="0 0 100 100" fill="none" xmlns="http://www.w3.org/2000/svg">
<rect opacity="0.1" width="100" height="100" rx="50" fill="#00B2E2"/>
<path d="M54.8366 36.9799C53.8845 36.804 53.0101 37.4116 52.8288 38.341C52.6476 39.2703 53.2571 40.1777 54.1833 40.3596C56.9718 40.9032 59.1249 43.0617 59.6707 45.8598V45.8618C59.8261 46.6672 60.5351 47.2528 61.3518 47.2528C61.4613 47.2528 61.5709 47.2428 61.6824 47.2229C62.6086 47.037 63.2181 46.1316 63.0368 45.2002C62.2222 41.0211 59.0054 37.7933 54.8366 36.9799Z" fill="#00B2E2"/>
<path d="M54.7121 30.0159C54.266 29.9519 53.8178 30.0838 53.4613 30.3676C53.0948 30.6554 52.8657 31.0711 52.8159 31.5368C52.7104 32.4782 53.3896 33.3296 54.3297 33.4355C60.813 34.159 65.8523 39.2095 66.5813 45.7131C66.6789 46.5845 67.4099 47.242 68.2823 47.242C68.348 47.242 68.4118 47.238 68.4775 47.23C68.9336 47.1801 69.3399 46.9542 69.6268 46.5945C69.9116 46.2347 70.041 45.787 69.9893 45.3293C69.081 37.2149 62.8008 30.9172 54.7121 30.0159Z" fill="#00B2E2"/>
<path fill-rule="evenodd" clip-rule="evenodd" d="M48.0635 51.9448C56.0416 59.9207 57.8515 50.6934 62.9313 55.7696C67.8286 60.6655 70.6432 61.6464 64.4385 67.8494C63.6613 68.474 58.7232 75.9885 41.3692 58.6393C24.013 41.288 31.5232 36.3449 32.1479 35.5679C38.3677 29.3477 39.3317 32.1788 44.229 37.0747C49.3087 42.153 40.0853 43.9688 48.0635 51.9448Z" fill="#00B2E2"/>
</svg>
